<?xml version="1.0" encoding="utf-8"?>
<!-- Generator: Adobe Illustrator 25.2.3, SVG Export Plug-In . SVG Version: 6.00 Build 0)  -->
<svg version="1.1" xmlns="http://www.w3.org/2000/svg" xmlns:xlink="http://www.w3.org/1999/xlink" x="0px" y="0px"
	 width="1798.7px" height="500px" viewBox="0 0 1798.7 500" style="enable-background:new 0 0 1798.7 500;" xml:space="preserve">
<style type="text/css">
	.st0{fill:#F89A5B;}
</style>
<g id="Layer_1">
	<path class="st0" d="M1737.9,430.4H208.6c-99.2,0-180.4-81.2-180.4-180.4v0c0-99.2,81.2-180.4,180.4-180.4h1385.1
		c99.2,0,180.4,81.2,180.4,180.4v144.2C1774.1,414.1,1757.8,430.4,1737.9,430.4z"/>
	<g>
		<path d="M159.1,370.9V127.8h57.6c26.6,0,46.3,4.6,59.2,13.8c12.9,9.2,22.6,23.2,29,41.9c6.5,18.7,9.7,40.8,9.7,66.4
			c0,24.2-3.4,45.5-10.2,63.9c-6.8,18.3-16.5,32.4-29,42.3c-12.5,9.9-32.1,14.8-58.7,14.8H159.1z M190.7,344.2h21.1
			c21.5,0,36.8-3.8,45.9-11.5c9.1-7.6,15.6-18.2,19.6-31.8c3.9-13.5,5.9-32.2,5.9-55.9c0-23.3-2.3-41.2-6.9-53.8
			s-11.2-22.2-19.7-28.9c-8.6-6.7-22.6-10.1-42.2-10.1h-23.7V344.2z"/>
		<path d="M497.2,359.3c-23.3,11.1-45.4,16.7-66.2,16.7c-15.8,0-29.9-3.9-42.3-11.8c-12.4-7.8-22.4-19-29.9-33.6
			c-7.5-14.6-11.2-30.1-11.2-46.7c0-16,3.6-31.3,10.7-46.1c7.1-14.7,17.1-26.2,29.8-34.4c12.7-8.2,26.9-12.3,42.6-12.3
			c20.8,0,37.5,7.4,50,22.2c12.6,14.8,18.9,37.7,18.9,68.7v6.3H378.9c0,12.1,2.5,23.2,7.6,33.2c5.1,10,11.8,17.5,20,22.5
			c8.2,5,17.6,7.6,28.1,7.6c18.8,0,39.7-6.3,62.5-18.8V359.3z M380.7,266.4H468v-4.3c0-14.3-3.5-25.6-10.5-34.1
			c-7-8.5-16.3-12.7-28-12.7c-11.8,0-22.1,4.3-30.7,12.9C390.1,236.9,384.1,249.6,380.7,266.4z"/>
		<path d="M691.3,365.8c-19.6,6.6-38.1,9.9-55.8,9.9c-17.6,0-33.2-4-46.8-12.1c-13.6-8.1-24.2-19.1-31.9-32.9
			c-7.6-13.8-11.5-29.6-11.5-47.2c0-26.6,8.7-48.6,26-66.2c17.3-17.5,38.2-26.3,62.6-26.3c18,0,37.1,3.4,57.3,10.2v28
			c-20.4-9.3-38.6-13.9-54.7-13.9c-10.7,0-20.7,2.6-30.1,7.9c-9.4,5.2-16.6,13.5-21.8,24.7c-5.1,11.2-7.7,22.7-7.7,34.5
			c0,15.7,4.9,30.7,14.8,45c9.9,14.3,25.4,21.5,46.4,21.5c6.4,0,12.7-0.4,18.9-1.3c6.2-0.9,17.5-4.1,34.1-9.7V365.8z"/>
		<path d="M882.1,359.3c-23.3,11.1-45.4,16.7-66.2,16.7c-15.8,0-29.9-3.9-42.3-11.8c-12.4-7.8-22.4-19-29.9-33.6
			c-7.5-14.6-11.2-30.1-11.2-46.7c0-16,3.6-31.3,10.7-46.1c7.1-14.7,17.1-26.2,29.8-34.4c12.7-8.2,26.9-12.3,42.6-12.3
			c20.8,0,37.5,7.4,50,22.2c12.6,14.8,18.9,37.7,18.9,68.7v6.3H763.9c0,12.1,2.5,23.2,7.6,33.2c5.1,10,11.8,17.5,20,22.5
			c8.2,5,17.6,7.6,28.1,7.6c18.8,0,39.7-6.3,62.5-18.8V359.3z M765.7,266.4H853v-4.3c0-14.3-3.5-25.6-10.5-34.1
			c-7-8.5-16.3-12.7-28-12.7c-11.8,0-22.1,4.3-30.7,12.9C775.1,236.9,769.1,249.6,765.7,266.4z"/>
		<path d="M929,370.9V196h29.2v38.2c8.3-13.4,18.4-24,30.2-31.6s23.6-11.5,35.4-11.5c10.4,0,19.8,2.8,28.3,8.2
			c8.5,5.5,14.4,12.7,17.8,21.5c3.4,8.9,5.1,26.3,5.1,52.2v97.8h-29.2V269.6c0-16.9-0.8-28-2.4-33.4c-1.6-5.3-4.6-9.8-8.9-13.2
			c-4.3-3.5-9-5.2-14.1-5.2c-10.3,0-21.3,4.9-33,14.6c-11.7,9.7-21.4,21.9-29,36.4v102.1H929z"/>
		<path d="M1123.5,361.7v-31c11.7,7.6,24.1,13,37.1,16.1c13,3.1,24.1,4.7,33.3,4.7c14.7,0,25.2-2.4,31.7-7.1
			c6.5-4.7,9.7-10.7,9.7-17.8c0-4.7-1.5-8.7-4.4-12.1c-3.1-3.4-10.6-7.5-22.6-12.4l-10.1-4.1l-20.2-7.9
			c-21.7-8.5-35.4-16.3-41.1-23.5c-5.7-7.1-8.6-15.8-8.6-26c0-14.5,5.5-26.3,16.7-35.6c11.1-9.3,29.2-13.9,54.2-13.9
			c18.6,0,36.3,2.7,53,8.1v26.4c-19.2-6.8-37.3-10.2-54.2-10.2c-12.3,0-21.9,2.2-28.9,6.5c-6.9,4.3-10.4,9.7-10.4,16.1
			c0,6.3,3,11.4,9,15.1c6,3.8,15.7,8.1,29.2,13l19.7,7.2c18.1,6.6,30.9,13.8,38.2,21.5c7.2,7.7,10.8,17.4,10.8,28.9
			c0,15.2-5.8,27.7-17.4,37.4c-11.6,9.8-30.2,14.7-55.9,14.7C1170.1,375.8,1147.1,371.1,1123.5,361.7z"/>
		<path d="M1314,370.9V118h29.2v116.1c8.3-13.4,18.4-24,30.2-31.6s23.6-11.5,35.4-11.5c10,0,19.1,2.5,27.3,7.6
			c8.2,5,13.9,11.2,17,18.4c2.6,5.5,4.5,11.4,5.4,17.6c1,6.2,1.5,19,1.5,38.5v97.8h-29.2V269.6c0-16.9-0.8-28-2.4-33.4
			c-1.6-5.3-4.6-9.8-8.9-13.2c-4.3-3.5-9-5.2-14.1-5.2c-10.3,0-21.3,4.9-33,14.6c-11.7,9.7-21.4,21.9-29,36.4v102.1H1314z"/>
		<path d="M1621.6,331.6c-9,14.6-19.7,25.6-32.2,33c-12.5,7.4-23.9,11.2-34.3,11.2c-14.7,0-27.8-6.3-39.4-18.9
			c-11.6-12.6-17.4-31.8-17.4-57.6c0-20.3,3.8-38.3,11.5-54.2c7.7-15.9,18-28.5,31-37.7c13-9.3,29-13.9,48-13.9
			c5.6,0,14,0.6,25.1,1.8c1.7,0.2,4.3,0.5,7.6,0.8h29.2v123.6c0,21.1,2.2,38.2,6.6,51.3h-30.4
			C1624.7,361.3,1622.9,348.2,1621.6,331.6z M1621.6,296.9v-75c-10.4-2.8-20-4.1-28.9-4.1c-17.9,0-32.9,7-44.8,20.9
			c-12,13.9-18,32.8-18,56.8c0,17.3,3.3,30.4,9.8,39.2c6.5,8.8,14,13.2,22.3,13.2c9.1,0,19.1-4.6,30-13.8
			C1602.9,324.9,1612.8,312.5,1621.6,296.9z"/>
	</g>
</g>
<g id="Layer_2">
	<g>
	</g>
	<g>
	</g>
	<g>
	</g>
	<g>
	</g>
	<g>
	</g>
	<g>
	</g>
</g>
</svg>
